<?xml version="1.0" standalone="no"?>
<!DOCTYPE svg PUBLIC "-//W3C//DTD SVG 20010904//EN"
 "http://www.w3.org/TR/2001/REC-SVG-20010904/DTD/svg10.dtd">
<svg version="1.0" xmlns="http://www.w3.org/2000/svg"
 width="512.000000pt" height="512.000000pt" viewBox="0 0 512.000000 512.000000"
 preserveAspectRatio="xMidYMid meet">

<g transform="translate(0.000000,512.000000) scale(0.100000,-0.100000)"
fill="#000000" stroke="none">
<path d="M1390 4050 l0 -571 55 31 c30 17 112 65 182 106 l128 74 5 138 5 138
705 -407 705 -406 3 245 c1 135 1 246 -1 248 -2 2 -17 -1 -33 -7 -26 -11 -37
-7 -114 38 -47 28 -206 120 -355 205 -148 85 -488 281 -755 435 -267 154 -495
285 -507 292 l-23 12 0 -571z"/>
<path d="M3248 4337 c-367 -212 -484 -285 -475 -293 7 -6 88 -55 181 -108
l168 -97 115 67 c63 36 117 63 121 59 4 -3 9 -368 12 -811 l5 -804 200 115
c110 64 204 120 209 125 4 4 -1 13 -13 19 l-21 12 0 999 c0 550 -3 1000 -7
999 -5 0 -227 -127 -495 -282z"/>
<path d="M1938 3609 c-3 -30 -30 -47 -798 -491 -437 -252 -825 -476 -862 -496
-38 -20 -68 -39 -68 -42 1 -4 959 -559 982 -568 5 -2 7 94 6 214 l-3 218 -115
63 c-63 34 -116 66 -117 70 -2 5 312 190 697 412 385 222 700 407 700 411 0 8
-397 240 -411 240 -4 0 -9 -14 -11 -31z"/>
<path d="M2296 3141 c-250 -145 -257 -150 -234 -164 93 -60 481 -297 484 -297
10 0 514 313 514 319 0 6 -492 291 -501 291 -2 0 -121 -67 -263 -149z"/>
<path d="M3930 2940 l0 -211 111 -71 c60 -39 107 -74 102 -78 -4 -4 -322 -189
-705 -410 -384 -221 -698 -405 -698 -409 0 -6 422 -251 433 -251 4 0 7 13 7
30 0 24 8 34 43 54 23 13 152 88 287 166 135 78 507 293 828 478 320 185 582
339 582 342 0 6 -975 570 -984 570 -3 0 -6 -95 -6 -210z"/>
<path d="M2956 2710 c-115 -71 -212 -132 -217 -137 -7 -7 304 -208 418 -271
l23 -13 0 276 c0 151 -3 275 -7 275 -5 0 -102 -59 -217 -130z"/>
<path d="M1550 2710 c-112 -65 -206 -123 -208 -128 -1 -5 9 -14 23 -20 l25
-12 2 -1005 3 -1005 488 281 c394 227 486 284 475 294 -7 7 -89 56 -181 109
l-169 97 -119 -70 -119 -70 -1 402 c-1 221 -5 592 -8 823 l-6 422 -205 -118z"/>
<path d="M1950 2565 l0 -257 23 14 c12 8 104 65 205 127 100 62 182 116 182
120 -1 5 -379 241 -401 249 -5 2 -9 -104 -9 -253z"/>
<path d="M2302 2307 c-195 -120 -241 -152 -230 -162 7 -7 116 -71 242 -144
l230 -131 150 86 c332 191 339 195 324 209 -10 10 -447 280 -468 290 -3 1
-114 -65 -248 -148z"/>
<path d="M1950 1750 c0 -227 1 -242 18 -235 9 4 24 9 33 12 9 2 136 -64 285
-150 148 -85 536 -309 862 -497 327 -188 596 -340 598 -337 2 2 3 259 2 570
l-3 566 -189 -108 -188 -109 1 -142 2 -141 -22 11 c-11 7 -326 188 -698 402
-372 215 -682 393 -688 395 -10 4 -13 -47 -13 -237z"/>
</g>
</svg>
